<mxfile host="65bd71144e">
    <diagram id="Btb2WLoOVrugXf3QV6XN" name="first setup">
        <mxGraphModel dx="369" dy="303" grid="1" gridSize="10" guides="1" tooltips="1" connect="1" arrows="1" fold="1" page="1" pageScale="1" pageWidth="827" pageHeight="1169" math="0" shadow="0">
            <root>
                <mxCell id="0"/>
                <mxCell id="1" parent="0"/>
                <mxCell id="20" value="Me" style="shape=umlActor;verticalLabelPosition=bottom;verticalAlign=top;html=1;outlineConnect=0;fillColor=#b0e3e6;strokeColor=#0e8088;" vertex="1" parent="1">
                    <mxGeometry x="600" y="290" width="30" height="60" as="geometry"/>
                </mxCell>
                <mxCell id="22" value="Website" style="swimlane;whiteSpace=wrap;html=1;fontColor=#030303;fillColor=#FFE6CC;" vertex="1" parent="1">
                    <mxGeometry x="90" y="55" width="170" height="115" as="geometry">
                        <mxRectangle x="90" y="55" width="90" height="30" as="alternateBounds"/>
                    </mxGeometry>
                </mxCell>
                <mxCell id="11" value="&lt;font color=&quot;#030303&quot;&gt;Nieuws pagina&lt;/font&gt;" style="rounded=0;whiteSpace=wrap;html=1;fillColor=#FFE6CC;" vertex="1" parent="22">
                    <mxGeometry x="20" y="35" width="130" height="30" as="geometry"/>
                </mxCell>
                <mxCell id="23" value="&lt;font color=&quot;#030303&quot;&gt;Inschrijfformulier pagina&lt;/font&gt;" style="rounded=0;whiteSpace=wrap;html=1;fillColor=#FFE6CC;" vertex="1" parent="22">
                    <mxGeometry x="20" y="75" width="130" height="30" as="geometry"/>
                </mxCell>
                <mxCell id="c-toH_A7TmxNrjQhJg11-41" value="Python scripts" style="swimlane;whiteSpace=wrap;html=1;fontColor=#000000;fillColor=#f0a30a;strokeColor=#BD7000;" vertex="1" parent="1">
                    <mxGeometry x="310" y="55" width="170" height="115" as="geometry">
                        <mxRectangle x="90" y="55" width="90" height="30" as="alternateBounds"/>
                    </mxGeometry>
                </mxCell>
                <mxCell id="c-toH_A7TmxNrjQhJg11-42" value="&lt;p style=&quot;line-height: 110%; font-size: 7px;&quot;&gt;&lt;font style=&quot;font-size: 7px;&quot; color=&quot;#030303&quot;&gt;&lt;b style=&quot;font-size: 7px;&quot;&gt;web_scraping.py &lt;br style=&quot;font-size: 7px;&quot;&gt;&lt;/b&gt;A script that checks if there is a new post on the website and notifies me if there is.&lt;/font&gt;&lt;/p&gt;" style="rounded=0;whiteSpace=wrap;html=1;fillColor=#e3c800;fontColor=#000000;strokeColor=#B09500;align=center;fontSize=7;spacing=2;" vertex="1" parent="c-toH_A7TmxNrjQhJg11-41">
                    <mxGeometry x="20" y="35" width="130" height="30" as="geometry"/>
                </mxCell>
                <mxCell id="c-toH_A7TmxNrjQhJg11-43" value="&lt;p style=&quot;line-height: 50%;&quot;&gt;&lt;font style=&quot;font-size: 7px;&quot;&gt;&lt;b style=&quot;color: rgb(3, 3, 3);&quot;&gt;web_scraping.py&lt;br&gt;&lt;/b&gt;&lt;span style=&quot;color: rgb(3, 3, 3);&quot;&gt;A script that checks if there is a new post on the website and notifies me if there is.&lt;/span&gt;&lt;/font&gt;&lt;br&gt;&lt;/p&gt;" style="rounded=0;whiteSpace=wrap;html=1;fillColor=#fa6800;fontColor=#000000;strokeColor=#C73500;" vertex="1" parent="c-toH_A7TmxNrjQhJg11-41">
                    <mxGeometry x="20" y="75" width="130" height="30" as="geometry"/>
                </mxCell>
                <mxCell id="sVYA-P_zk5SEsgUEzxAb-44" value="Cronjobs" style="swimlane;whiteSpace=wrap;html=1;fontColor=#ffffff;fillColor=#647687;strokeColor=#314354;" vertex="1" parent="1">
                    <mxGeometry x="530" y="55" width="170" height="115" as="geometry">
                        <mxRectangle x="90" y="55" width="90" height="30" as="alternateBounds"/>
                    </mxGeometry>
                </mxCell>
                <mxCell id="sVYA-P_zk5SEsgUEzxAb-45" value="&lt;font color=&quot;#030303&quot;&gt;every minute on raspberri py both scripts are ran&lt;/font&gt;" style="rounded=0;whiteSpace=wrap;html=1;fillColor=#FFE6CC;" vertex="1" parent="sVYA-P_zk5SEsgUEzxAb-44">
                    <mxGeometry x="20" y="35" width="130" height="65" as="geometry"/>
                </mxCell>
                <mxCell id="sVYA-P_zk5SEsgUEzxAb-51" style="edgeStyle=none;html=1;entryX=1;entryY=0.5;entryDx=0;entryDy=0;strokeColor=#3A5431;strokeWidth=2;fontSize=10;fontColor=#5498F0;fillColor=#6d8764;" edge="1" parent="1" source="c-toH_A7TmxNrjQhJg11-42" target="11">
                    <mxGeometry relative="1" as="geometry"/>
                </mxCell>
                <mxCell id="sVYA-P_zk5SEsgUEzxAb-53" style="edgeStyle=none;html=1;entryX=1;entryY=0.5;entryDx=0;entryDy=0;strokeColor=#3A5431;strokeWidth=2;fontSize=10;fontColor=#5498F0;fillColor=#6d8764;" edge="1" parent="1" source="c-toH_A7TmxNrjQhJg11-43" target="23">
                    <mxGeometry relative="1" as="geometry"/>
                </mxCell>
                <mxCell id="sVYA-P_zk5SEsgUEzxAb-55" style="edgeStyle=none;html=1;strokeColor=#3A5431;strokeWidth=2;fontSize=10;fontColor=#5498F0;fillColor=#6d8764;" edge="1" parent="1">
                    <mxGeometry relative="1" as="geometry">
                        <mxPoint x="615" y="210" as="targetPoint"/>
                        <mxPoint x="615" y="160" as="sourcePoint"/>
                    </mxGeometry>
                </mxCell>
                <mxCell id="sVYA-P_zk5SEsgUEzxAb-57" value="&lt;font color=&quot;#0c0d0d&quot; style=&quot;font-size: 9px;&quot;&gt;Helaas nog geen nieuws&lt;/font&gt;" style="shape=callout;whiteSpace=wrap;html=1;perimeter=calloutPerimeter;fontSize=9;fontColor=#000000;fillColor=#e3c800;position2=0.71;size=20;position=0.43;strokeColor=#B09500;" vertex="1" parent="1">
                    <mxGeometry x="530" y="220" width="70" height="60" as="geometry"/>
                </mxCell>
                <mxCell id="sVYA-P_zk5SEsgUEzxAb-58" value="&lt;font color=&quot;#0c0d0d&quot; style=&quot;font-size: 9px;&quot;&gt;Er is nieuws!&lt;/font&gt;" style="shape=callout;whiteSpace=wrap;html=1;perimeter=calloutPerimeter;fontSize=9;fontColor=#000000;fillColor=#e3c800;position2=0.43;size=20;position=0.43;strokeColor=#B09500;" vertex="1" parent="1">
                    <mxGeometry x="620" y="220" width="70" height="60" as="geometry"/>
                </mxCell>
                <mxCell id="sVYA-P_zk5SEsgUEzxAb-63" style="edgeStyle=none;html=1;strokeColor=#3A5431;strokeWidth=2;fontSize=10;fontColor=#0c0d0d;fillColor=#6d8764;entryX=0;entryY=0.5;entryDx=0;entryDy=0;" edge="1" parent="1" source="c-toH_A7TmxNrjQhJg11-42" target="sVYA-P_zk5SEsgUEzxAb-45">
                    <mxGeometry relative="1" as="geometry">
                        <mxPoint x="540" y="105" as="targetPoint"/>
                    </mxGeometry>
                </mxCell>
                <mxCell id="sVYA-P_zk5SEsgUEzxAb-64" style="edgeStyle=none;shape=connector;rounded=1;html=1;entryX=0;entryY=0.5;entryDx=0;entryDy=0;labelBackgroundColor=default;strokeColor=#3A5431;strokeWidth=2;fontFamily=Helvetica;fontSize=10;fontColor=#0c0d0d;endArrow=classic;fillColor=#6d8764;" edge="1" parent="1" source="c-toH_A7TmxNrjQhJg11-43" target="sVYA-P_zk5SEsgUEzxAb-45">
                    <mxGeometry relative="1" as="geometry">
                        <mxPoint x="550" y="145" as="targetPoint"/>
                    </mxGeometry>
                </mxCell>
                <mxCell id="sVYA-P_zk5SEsgUEzxAb-71" value="&lt;font style=&quot;font-size: 9px;&quot; color=&quot;#0c0d0d&quot;&gt;De nieuwe fase met nieuwe huizen staat online en je bent ingeschreven!&lt;/font&gt;" style="shape=callout;whiteSpace=wrap;html=1;perimeter=calloutPerimeter;fontSize=10;fontColor=#000000;fillColor=#fa6800;position2=0.5;size=20;position=0.43;strokeColor=#C73500;direction=west;flipH=1;" vertex="1" parent="1">
                    <mxGeometry x="530" y="380" width="160" height="60" as="geometry"/>
                </mxCell>
            </root>
        </mxGraphModel>
    </diagram>
    <diagram id="Awly74gOMn7WTGIv4eed" name="testing">
        <mxGraphModel dx="906" dy="545" grid="1" gridSize="10" guides="1" tooltips="1" connect="1" arrows="1" fold="1" page="1" pageScale="1" pageWidth="827" pageHeight="1169" math="0" shadow="0">
            <root>
                <mxCell id="0"/>
                <mxCell id="1" parent="0"/>
                <mxCell id="f_beeOZ-ZoXexcSAF8iD-1" value="&lt;font color=&quot;#030303&quot;&gt;Website&lt;/font&gt;" style="rounded=0;whiteSpace=wrap;html=1;fillColor=#FFE6CC;" vertex="1" parent="1">
                    <mxGeometry x="150" y="90" width="80" height="100" as="geometry"/>
                </mxCell>
                <mxCell id="f_beeOZ-ZoXexcSAF8iD-2" value="&lt;font color=&quot;#030303&quot;&gt;Code&lt;/font&gt;" style="rounded=0;whiteSpace=wrap;html=1;fillColor=#0050ef;fontColor=#ffffff;strokeColor=#001DBC;" vertex="1" parent="1">
                    <mxGeometry x="150" y="220" width="80" height="100" as="geometry"/>
                </mxCell>
                <mxCell id="f_beeOZ-ZoXexcSAF8iD-3" value="&lt;font color=&quot;#030303&quot;&gt;Scheduler&lt;/font&gt;" style="rounded=0;whiteSpace=wrap;html=1;fillColor=#008a00;fontColor=#ffffff;strokeColor=#005700;" vertex="1" parent="1">
                    <mxGeometry x="150" y="350" width="80" height="100" as="geometry"/>
                </mxCell>
            </root>
        </mxGraphModel>
    </diagram>
</mxfile>